<svg version="1.1" id="Layer_1" xmlns="http://www.w3.org/2000/svg" x="0" y="0" viewBox="7 0 82.7 100" style="enable-background:new 7 0 82.7 100" xml:space="preserve"><style>.st0{fill:#8e3aef}</style><g id="XMLID_1_"><path class="st0" d="M37.2 75.4c-10.7-3.2-19.8-9.2-25.6-17C9.6 55.7 8 52.8 7 50l1.1-3.2C10.5 39.7 16 27.4 27.8 17c2.3-2 4.7-3.9 7.5-5.7 1-.7 2-1.3 3.1-1.9C47.9 3.7 58.5.6 70 .1c8.5-.4 15.4.7 19.7 1.8l-6.4 27.4-1.9 8.1L79 47.7 67.9 26.9s-11.9 2.5-18 6.5C42.4 38.4 38 44.8 35.4 50c2.6 5.2 7 11.7 14.5 16.6 7.6 5 15.5 6.6 21.8 6.8-9.2 4.7-21.8 5.8-34.5 2z"/><path class="st0" d="m83.7 72.6 6 25.5c-4.3 1-11.2 2.1-19.7 1.8-12.8-.6-24.4-4.3-34.7-11.2a69.9 69.9 0 0 1-15.8-14.5c4.8 3.1 10.1 5.6 15.9 7.3 5.7 1.7 11.5 2.5 17.2 2.5 6.2 0 12.1-1 17.6-3 5.4-2 9.9-4.8 13.5-8.4z"/></g></svg>