<?xml version="1.0" encoding="utf-8"?>
<!-- Generator: Adobe Illustrator 19.0.0, SVG Export Plug-In . SVG Version: 6.00 Build 0)  -->
<svg version="1.1" id="Layer_1" xmlns="http://www.w3.org/2000/svg" xmlns:xlink="http://www.w3.org/1999/xlink" x="0px" y="0px"
	 viewBox="109.5 25.1 276.5 49.8" style="enable-background:new 109.5 25.1 276.5 49.8;" xml:space="preserve">
<style type="text/css">
	.st0{fill:#8E3AEF;}
</style>
<g>
	<g>
		<path class="st0" d="M192.1,32.5c-4.4-4.4-10.3-6.7-17.2-6.7c-16.6,0-24.2,12.8-24.2,24.8c0,12.1,7.5,24.3,24.2,24.3
			c8.3,0,14.2-3,18.2-7.6c4-4.6,5.9-10.6,5.9-16.7C199.1,43.6,196.6,37,192.1,32.5z M174.9,62.7c-10.4,0-11.5-9.3-11.6-12.1
			c-0.1-3.8,1.2-7.4,3.4-9.7c2-2.1,4.8-3.1,8.1-3.1c3.4,0,6.1,1,8.1,3c2.3,2.3,3.5,5.8,3.4,9.7C186.4,53.4,185.4,62.7,174.9,62.7z"
			/>
		<path class="st0" d="M145,57.2l8.8,8.9l-1.7,1.7c-4.6,4.6-10.8,7-17.8,7c-18.3,0-24.8-13.1-24.9-24.3c0-6.9,2.5-13.4,7-17.9
			c4.5-4.5,10.7-6.9,17.9-6.9c6.5,0,12.5,2.5,17.3,7.2l1.7,1.7l-8.8,8.5l-1.7-1.6c-2.2-2.1-5.2-3.3-8.6-3.3c-3.7,0-6.7,1.1-8.8,3.3
			c-2.2,2.2-3.4,5.5-3.4,9.1c0,2.8,1,12,12.2,12c3.3,0,6.8-1.4,9-3.6L145,57.2z"/>
	</g>
	<g>
		<path class="st0" d="M246,73.8l-14.4-16.2c5.7-2.5,8.9-7.6,8.9-14.5c0-7.9-5.5-16.4-17.7-16.4c-3.4,0-6.7,0-10.1,0
			c-3.4,0-6.7,0-10.1,0h-2.4v47.3H213V59.6h4.2l12.4,14.2 M227.7,43.2c0,1-0.3,4.4-4.9,4.4H213v-8.8h9.8
			C227.4,38.8,227.7,42.2,227.7,43.2z"/>
	</g>
	<g>
		<path class="st0" d="M286.8,26.6v2.3l1-2.3H286.8z"/>
	</g>
	<g>
		<path class="st0" d="M286.8,26.6v2.3l1-2.3H286.8z"/>
	</g>
	<g>
		<polygon class="st0" points="287.8,26.6 299.5,26.6 299.5,73.8 286.8,73.8 286.8,28.9 		"/>
		<path class="st0" d="M344.3,53.3c0,13.2-8,21.4-20.8,21.4c-10.6,0-21.2-6.6-21.2-21.4V26.6H315v26.7c0,6,3.1,9.3,8.6,9.3
			c6.6,0,8-5.1,8-9.3V26.6h12.7V53.3z"/>
		<polygon class="st0" points="286.8,26.6 286.8,28.9 268.1,74 256.7,74 237,26.6 251.2,26.6 262.4,55.4 273.6,26.6 		"/>
		<path class="st0" d="M386,59c0,9.7-7.9,15.9-20.2,15.9c-10.7,0-17.4-3.9-20.7-11.9l-0.8-2l10.9-5.7l1,2.4c1.3,3.3,5,5.2,9.7,5.2
			c1.7,0,7.4-0.3,7.4-4c0-0.7,0-3-7.7-3.9c-5.6-0.7-18.8-2.2-18.8-15.2c0-10.1,9.4-14.7,18.8-14.7c9.2,0,15.7,3.4,18.8,9.8l1,2.1
			L375,42.3l-1.2-1.9c-0.9-1.5-4-3.6-8-3.6c-3.1,0-6.4,0.9-6.4,3.3c0,1.5,2.2,2.4,7.4,3C373,43.9,386,45.5,386,59z"/>
	</g>
</g>
</svg>
