<?xml version="1.0" encoding="utf-8"?>
<!-- Generator: Adobe Illustrator 19.0.0, SVG Export Plug-In . SVG Version: 6.00 Build 0)  -->
<svg version="1.1" id="Layer_1" xmlns="http://www.w3.org/2000/svg" xmlns:xlink="http://www.w3.org/1999/xlink" x="0px" y="0px"
	 viewBox="7 0 82.7 100" style="enable-background:new 7 0 82.7 100;" xml:space="preserve">
<style type="text/css">
	.st0{fill:#8E3AEF;}
</style>
<g id="XMLID_1_">
	<path class="st0" d="M37.2,75.4c-10.7-3.2-19.8-9.2-25.6-17C9.6,55.7,8,52.8,7,50v0l1.1-3.2C10.5,39.7,16,27.4,27.8,17
		c2.3-2,4.7-3.9,7.5-5.7c1-0.7,2-1.3,3.1-1.9C47.9,3.7,58.5,0.6,70,0.1c8.5-0.4,15.4,0.7,19.7,1.8l-6.4,27.4l-1.9,8.1L79,47.7
		L67.9,26.9c0,0-11.9,2.5-18,6.5C42.4,38.4,38,44.8,35.4,50c2.6,5.2,7,11.7,14.5,16.6c7.6,5,15.5,6.6,21.8,6.8
		C62.5,78.1,49.9,79.2,37.2,75.4z"/>
	<path class="st0" d="M83.7,72.6l6,25.5c-4.3,1-11.2,2.1-19.7,1.8c-12.8-0.6-24.4-4.3-34.7-11.2c-6.6-4.4-11.8-9.5-15.8-14.5
		c4.8,3.1,10.1,5.6,15.9,7.3c5.7,1.7,11.5,2.5,17.2,2.5c6.2,0,12.1-1,17.6-3C75.6,79,80.1,76.2,83.7,72.6z"/>
</g>
</svg>
