<?xml version="1.0" encoding="utf-8"?>
<!-- Generator: Adobe Illustrator 19.0.0, SVG Export Plug-In . SVG Version: 6.00 Build 0)  -->
<svg version="1.1" id="Layer_1" xmlns="http://www.w3.org/2000/svg" xmlns:xlink="http://www.w3.org/1999/xlink" x="0px" y="0px"
	 viewBox="0 0 120 65.5" style="enable-background:new 0 0 120 65.5;" xml:space="preserve">
<style type="text/css">
	.st0{fill:#9C20ED;}
</style>
<g id="XMLID_22_">
	<path id="XMLID_25_" class="st0" d="M25.8,51.5l-0.2-5.2c-0.8,0.9-1.7,1.7-2.6,2.4c-0.9,0.7-1.9,1.4-3,1.9c-1.1,0.5-2.3,1-3.5,1.3
		c-1.3,0.3-2.7,0.4-4.2,0.4c-2,0-3.8-0.3-5.3-0.9c-1.5-0.6-2.8-1.4-3.8-2.5c-1-1.1-1.8-2.3-2.3-3.8C0.3,43.7,0,42,0,40.2
		c0-1.9,0.4-3.6,1.2-5.2s2-2.9,3.6-4.1s3.6-2,6-2.7c2.4-0.6,5.2-1,8.5-1h5.2V25c0-1-0.1-1.9-0.4-2.7c-0.3-0.8-0.7-1.5-1.4-2.1
		c-0.6-0.6-1.5-1-2.5-1.3c-1-0.3-2.2-0.5-3.7-0.5c-2.3,0-4.6,0.3-6.9,0.8s-4.4,1.3-6.6,2.2v-7.6c1.9-0.7,4.1-1.4,6.5-1.9
		c2.5-0.5,5-0.7,7.7-0.7c2.9,0,5.4,0.3,7.5,0.8s3.8,1.4,5.2,2.5s2.4,2.5,3,4.2c0.6,1.7,1,3.6,1,5.8v26.9H25.8z M24.5,34.1h-5.8
		c-1.6,0-3,0.2-4.1,0.5c-1.1,0.3-2,0.7-2.7,1.3c-0.7,0.5-1.2,1.2-1.5,1.9S9.9,39.2,9.9,40c0,1.6,0.5,2.8,1.5,3.7
		c1,0.8,2.4,1.3,4.2,1.3c1.3,0,2.7-0.5,4.1-1.4s3-2.3,4.7-4.1V34.1z"/>
	<path id="XMLID_28_" class="st0" d="M75.7,23.2c0,4-0.3,7.4-1,10.4S73,39,71.8,41.1c-1.2,2.1-2.7,3.8-4.4,5.2
		c-1.7,1.3-3.6,2.4-5.7,3.2c-2.1,0.8-4.3,1.3-6.7,1.6c-2.4,0.3-4.8,0.4-7.3,0.4h-5.8v-8.1h6.9c3,0,5.5-0.3,7.6-0.8
		c2-0.5,3.7-1.3,4.9-2.3c1.3-1,2.2-2.3,2.8-3.8s1-3.3,1.2-5.3l0.1-1c-1.4,0.6-2.9,1.2-4.7,1.6c-1.8,0.4-3.5,0.6-5.3,0.6
		c-2.5,0-4.7-0.3-6.7-0.9c-2-0.6-3.8-1.5-5.2-2.7C42,27.6,40.9,26,40.1,24c-0.8-2-1.2-4.4-1.2-7.1c0-2.5,0.5-4.8,1.4-6.9
		c0.9-2.1,2.2-3.9,3.8-5.3c1.6-1.5,3.6-2.6,5.8-3.4C52.2,0.4,54.7,0,57.4,0c2.6,0,5.1,0.4,7.3,1.1c2.2,0.7,4.2,2,5.8,3.8
		c1.6,1.8,2.9,4.2,3.8,7.1C75.2,15.1,75.7,18.7,75.7,23.2z M56.9,7.9c-1.2,0-2.4,0.2-3.4,0.6c-1,0.4-1.9,1-2.6,1.7
		c-0.7,0.7-1.3,1.6-1.6,2.7c-0.4,1-0.6,2.2-0.6,3.5c0,2.7,0.7,4.8,2.2,6.1c1.4,1.3,3.4,2,6,2c0.7,0,1.4-0.1,2.2-0.2
		c0.8-0.1,1.6-0.3,2.4-0.5c0.8-0.2,1.5-0.5,2.2-0.8c0.7-0.3,1.3-0.6,1.9-0.9c0-2.3-0.1-4.3-0.4-6.1s-0.8-3.2-1.5-4.4
		S62.1,9.5,61,8.9C59.9,8.3,58.5,7.9,56.9,7.9z"/>
	<path id="XMLID_31_" class="st0" d="M112.3,41.2v10.3h-9.2V41.2H79.6v-8.1L99.3,0.9h13v32h7.7v8.3H112.3z M103.2,10L88.8,32.8h14.4
		V10z"/>
</g>
<rect id="XMLID_8_" x="80.8" y="56.4" class="st0" width="39.2" height="9.1"/>
</svg>
