<?xml version="1.0" encoding="utf-8"?>
<!-- Generator: Adobe Illustrator 19.0.0, SVG Export Plug-In . SVG Version: 6.00 Build 0)  -->
<svg version="1.1" id="Layer_1" xmlns="http://www.w3.org/2000/svg" xmlns:xlink="http://www.w3.org/1999/xlink" x="0px" y="0px"
	 viewBox="-44 46 30 30" style="enable-background:new -44 46 30 30;" xml:space="preserve">
<style type="text/css">
	.st0{fill:#36FF49;}
</style>
<path id="XMLID_1_" class="st0" d="M-32,68.3L-32,68.3c-0.7,0.3-1.6,0.1-2-0.5l-1.1-1.6l-4.4-5.9c-0.6-0.7-0.4-1.7,0.3-2.3l0,0
	c0.7-0.6,1.7-0.4,2.3,0.3l4.7,6.4l0.8,1.1C-30.9,66.7-31.2,67.8-32,68.3z"/>
<path id="XMLID_8_" class="st0" d="M-17.9,54.2c0.6,0.6,0.5,1.7-0.2,2.3l-12.2,10.3l-1.4,1.3c-0.6,0.5-1.5,0.5-2.1,0l0,0
	c-0.8-0.6-0.8-1.8,0-2.5l1-0.9L-20.1,54C-19.5,53.4-18.4,53.4-17.9,54.2L-17.9,54.2z"/>
</svg>
