<?xml version="1.0" encoding="utf-8"?>
<!-- Generator: Adobe Illustrator 19.0.0, SVG Export Plug-In . SVG Version: 6.00 Build 0)  -->
<svg version="1.1" id="Layer_1" xmlns="http://www.w3.org/2000/svg" xmlns:xlink="http://www.w3.org/1999/xlink" x="0px" y="0px"
	 viewBox="90 0 30 30" style="enable-background:new 90 0 30 30;" xml:space="preserve">
<style type="text/css">
	.st0{fill:#FF0D30;}
</style>
<path id="XMLID_22_" class="st0" d="M98.1,21.9L98.1,21.9c0.6,0.6,1.6,0.6,2.2,0l11.7-11.7c0.6-0.6,0.6-1.6,0-2.2l0,0
	c-0.6-0.6-1.6-0.6-2.2,0L98.1,19.8C97.5,20.4,97.5,21.3,98.1,21.9z"/>
<path id="XMLID_9_" class="st0" d="M111.9,21.9L111.9,21.9c-0.6,0.6-1.6,0.6-2.2,0L98.1,10.2c-0.6-0.6-0.6-1.6,0-2.2l0,0
	c0.6-0.6,1.6-0.6,2.2,0l11.7,11.7C112.5,20.4,112.5,21.3,111.9,21.9z"/>
</svg>
