<?xml version="1.0" encoding="utf-8"?>
<!-- Generator: Adobe Illustrator 19.0.0, SVG Export Plug-In . SVG Version: 6.00 Build 0)  -->
<svg version="1.1" id="Layer_1" xmlns="http://www.w3.org/2000/svg" xmlns:xlink="http://www.w3.org/1999/xlink" x="0px" y="0px"
	 viewBox="-234 236 30 30" style="enable-background:new -234 236 30 30;" xml:space="preserve">
<style type="text/css">
	.st0{fill:#D3D6D9;}
</style>
<path class="st0" d="M-231.6,263.3c-0.3,0-0.5-0.1-0.7-0.3c-0.2-0.2-0.3-0.5-0.2-0.8c0.2-0.9,0.5-1.8,0.8-2.6
	c0.2-0.5,0.4-1.1,0.7-1.7c-0.6,0.1-1.2,0.3-1.7,0.6c-0.5,0.2-1,0-1.2-0.4c-0.2-0.5,0-1,0.4-1.2c1.4-0.7,3-0.9,4.4-1.1
	c0.3,0,0.6,0.1,0.8,0.3c0.2,0.2,0.3,0.6,0.1,0.9c-0.2,0.6-0.5,1-0.8,1.3c-0.1,0.2-0.3,0.3-0.4,0.5c-0.3,0.4-0.4,0.9-0.6,1.4
	c-0.1,0.4-0.2,0.7-0.4,1.1l2.4-0.4c0.5-0.1,1,0.2,1.1,0.7c0.1,0.5-0.2,1-0.7,1.1l-3.9,0.7C-231.5,263.2-231.5,263.3-231.6,263.3z"/>
<path class="st0" d="M-218.8,258C-218.8,258-218.8,258-218.8,258c-2-0.1-3.9-0.1-5.9-0.1c-0.5,0-0.9-0.2-1.2-0.6
	c-0.3-0.4-0.3-0.9-0.1-1.3c0.7-1.6,1.5-3.1,2.4-4.5c-1.2,0.1-2.4,0.3-3.6,0.5c-0.7,0.1-1.5-0.3-1.6-1.1c-0.1-0.7,0.3-1.5,1.1-1.6
	c2.2-0.4,4.5-0.7,6.8-0.8c0.5,0,1,0.3,1.3,0.7c0.2,0.5,0.2,1-0.1,1.4c-1,1.4-2,2.9-2.8,4.4c1.3,0,2.5,0,3.8,0.1
	c0.8,0,1.3,0.7,1.3,1.4C-217.4,257.4-218,258-218.8,258z"/>
<path class="st0" d="M-209.2,255.6c-0.2,0-0.5,0-0.7-0.1c-2.3-0.9-4.9-2-6.9-4c-1.3-1.3-0.9-2.6-0.7-3c0.3-0.7,0.9-1,1.1-1.2
	c0.8-0.5,1.6-1.2,2.3-1.9c0.9-0.8,1.8-1.6,2.9-2.3c0.1-0.1,0.3-0.2,0.4-0.2l-6.2-1.1c-1-0.2-1.6-1.1-1.5-2.1c0.2-1,1.1-1.6,2.1-1.5
	l6.8,1.2c1.4,0.3,3,0.5,4.4,1.4c0.8,0.5,1.1,1.4,0.7,2.3c-0.6,1.4-2,1.8-2.7,2.1c-0.8,0.3-1.6,0.6-2.3,1c-0.8,0.5-1.5,1.2-2.3,1.9
	c-0.6,0.5-1.2,1.1-1.8,1.6c1.4,1.1,3.1,1.8,4.8,2.5c0.9,0.4,1.4,1.4,1,2.4C-207.8,255.2-208.5,255.6-209.2,255.6z"/>
</svg>
