<svg version="1.1" id="Layer_1" xmlns="http://www.w3.org/2000/svg" x="0" y="0" viewBox="0 0 120 65.5" style="enable-background:new 0 0 120 65.5" xml:space="preserve"><style>.st0{fill:#9c20ed}</style><g id="XMLID_22_"><path id="XMLID_25_" class="st0" d="m25.8 51.5-.2-5.2c-.8.9-1.7 1.7-2.6 2.4-.9.7-1.9 1.4-3 1.9s-2.3 1-3.5 1.3c-1.3.3-2.7.4-4.2.4-2 0-3.8-.3-5.3-.9-1.5-.6-2.8-1.4-3.8-2.5S1.4 46.6.9 45.1C.3 43.7 0 42 0 40.2c0-1.9.4-3.6 1.2-5.2s2-2.9 3.6-4.1 3.6-2 6-2.7c2.4-.6 5.2-1 8.5-1h5.2V25c0-1-.1-1.9-.4-2.7-.3-.8-.7-1.5-1.4-2.1-.6-.6-1.5-1-2.5-1.3-1-.3-2.2-.5-3.7-.5-2.3 0-4.6.3-6.9.8S5.2 20.5 3 21.4v-7.6c1.9-.7 4.1-1.4 6.5-1.9 2.5-.5 5-.7 7.7-.7 2.9 0 5.4.3 7.5.8s3.8 1.4 5.2 2.5 2.4 2.5 3 4.2c.6 1.7 1 3.6 1 5.8v26.9h-8.1zm-1.3-17.4h-5.8c-1.6 0-3 .2-4.1.5-1.1.3-2 .7-2.7 1.3-.7.5-1.2 1.2-1.5 1.9s-.5 1.4-.5 2.2c0 1.6.5 2.8 1.5 3.7 1 .8 2.4 1.3 4.2 1.3 1.3 0 2.7-.5 4.1-1.4s3-2.3 4.7-4.1v-5.4z"/><path id="XMLID_28_" class="st0" d="M75.7 23.2c0 4-.3 7.4-1 10.4S73 39 71.8 41.1c-1.2 2.1-2.7 3.8-4.4 5.2-1.7 1.3-3.6 2.4-5.7 3.2-2.1.8-4.3 1.3-6.7 1.6-2.4.3-4.8.4-7.3.4h-5.8v-8.1h6.9c3 0 5.5-.3 7.6-.8 2-.5 3.7-1.3 4.9-2.3 1.3-1 2.2-2.3 2.8-3.8s1-3.3 1.2-5.3l.1-1c-1.4.6-2.9 1.2-4.7 1.6-1.8.4-3.5.6-5.3.6-2.5 0-4.7-.3-6.7-.9-2-.6-3.8-1.5-5.2-2.7-1.5-1.2-2.6-2.8-3.4-4.8-.8-2-1.2-4.4-1.2-7.1 0-2.5.5-4.8 1.4-6.9.9-2.1 2.2-3.9 3.8-5.3 1.6-1.5 3.6-2.6 5.8-3.4C52.2.4 54.7 0 57.4 0c2.6 0 5.1.4 7.3 1.1 2.2.7 4.2 2 5.8 3.8 1.6 1.8 2.9 4.2 3.8 7.1.9 3.1 1.4 6.7 1.4 11.2zM56.9 7.9c-1.2 0-2.4.2-3.4.6-1 .4-1.9 1-2.6 1.7-.7.7-1.3 1.6-1.6 2.7-.4 1-.6 2.2-.6 3.5 0 2.7.7 4.8 2.2 6.1 1.4 1.3 3.4 2 6 2 .7 0 1.4-.1 2.2-.2.8-.1 1.6-.3 2.4-.5.8-.2 1.5-.5 2.2-.8.7-.3 1.3-.6 1.9-.9 0-2.3-.1-4.3-.4-6.1s-.8-3.2-1.5-4.4-1.6-2.1-2.7-2.7c-1.1-.6-2.5-1-4.1-1z"/><path id="XMLID_31_" class="st0" d="M112.3 41.2v10.3h-9.2V41.2H79.6v-8.1L99.3.9h13v32h7.7v8.3h-7.7zM103.2 10 88.8 32.8h14.4V10z"/></g><path id="XMLID_8_" class="st0" d="M80.8 56.4H120v9.1H80.8z"/></svg>