<?xml version="1.0" encoding="utf-8"?>
<!-- Generator: Adobe Illustrator 19.0.0, SVG Export Plug-In . SVG Version: 6.00 Build 0)  -->
<svg version="1.1" id="Layer_1" xmlns="http://www.w3.org/2000/svg" xmlns:xlink="http://www.w3.org/1999/xlink" x="0px" y="0px"
	 viewBox="90 0 30 30" style="enable-background:new 90 0 30 30;" xml:space="preserve">
<style type="text/css">
	.st0{fill:#D3D6D9;}
</style>
<path class="st0" d="M116.6,27.1l-10.8-6.5h-8.3c-4.1,0-7.4-3.3-7.4-7.3v-2.9c0-4,3.3-7.3,7.4-7.3h15.3c4.1,0,7.4,3.3,7.4,7.4v5.6
	c0,2.1-1.5,3.9-3.4,4.5L116.6,27.1z M97.5,5.4c-2.7,0-4.9,2.2-4.9,4.8v2.9c0,2.7,2.2,4.8,4.9,4.8h9l7.7,4.6l0.1-4.6h1.2
	c1.2,0,2.2-1,2.2-2.1v-5.6c0-2.7-2.2-4.9-4.9-4.9H97.5z"/>
<circle id="XMLID_2_" class="st0" cx="99.5" cy="12" r="2"/>
<circle id="XMLID_8_" class="st0" cx="105.2" cy="12" r="2"/>
<circle id="XMLID_10_" class="st0" cx="110.9" cy="12" r="2"/>
</svg>
