<svg version="1.1" id="Layer_1" xmlns="http://www.w3.org/2000/svg" x="0" y="0" viewBox="-44 46 30 30" style="enable-background:new -44 46 30 30" xml:space="preserve"><style>.st0{fill:#36ff49}</style><path id="XMLID_1_" class="st0" d="M-32 68.3c-.7.3-1.6.1-2-.5l-1.1-1.6-4.4-5.9c-.6-.7-.4-1.7.3-2.3.7-.6 1.7-.4 2.3.3l4.7 6.4.8 1.1c.5.9.2 2-.6 2.5z"/><path id="XMLID_8_" class="st0" d="M-17.9 54.2c.6.6.5 1.7-.2 2.3l-12.2 10.3-1.4 1.3c-.6.5-1.5.5-2.1 0-.8-.6-.8-1.8 0-2.5l1-.9L-20.1 54c.6-.6 1.7-.6 2.2.2z"/></svg>