<?xml version="1.0" encoding="utf-8"?>
<!-- Generator: Adobe Illustrator 19.0.0, SVG Export Plug-In . SVG Version: 6.00 Build 0)  -->
<svg version="1.1" id="Layer_1" xmlns="http://www.w3.org/2000/svg" xmlns:xlink="http://www.w3.org/1999/xlink" x="0px" y="0px"
	 viewBox="7 0 359.2 100" style="enable-background:new 7 0 359.2 100;" xml:space="preserve">
<style type="text/css">
	.st0{fill:#8E3AEF;}
</style>
<g id="XMLID_1_">
	<path class="st0" d="M37.2,75.4c-10.7-3.2-19.8-9.2-25.6-17C9.6,55.7,8,52.8,7,50v0l1.1-3.2C10.5,39.7,16,27.4,27.8,17
		c2.3-2,4.7-3.9,7.5-5.7c1-0.7,2-1.3,3.1-1.9C47.9,3.7,58.5,0.6,70,0.1c8.5-0.4,15.4,0.7,19.7,1.8l-6.4,27.4l-1.9,8.1L79,47.7
		L67.9,26.9c0,0-11.9,2.5-18,6.5C42.4,38.4,38,44.8,35.4,50c2.6,5.2,7,11.7,14.5,16.6c7.6,5,15.5,6.6,21.8,6.8
		C62.5,78.1,49.9,79.2,37.2,75.4z"/>
	<path class="st0" d="M83.7,72.6l6,25.5c-4.3,1-11.2,2.1-19.7,1.8c-12.8-0.6-24.4-4.3-34.7-11.2c-6.6-4.4-11.8-9.5-15.8-14.5
		c4.8,3.1,10.1,5.6,15.9,7.3c5.7,1.7,11.5,2.5,17.2,2.5c6.2,0,12.1-1,17.6-3C75.6,79,80.1,76.2,83.7,72.6z"/>
</g>
<g>
	<g>
		<path class="st0" d="M180.3,33.2c-4.2-4.2-9.9-6.5-16.5-6.5c-1.6,0-3.1,0.1-4.6,0.4c-1,0.2-1.9,0.7-2.5,1.5
			c-1.2,1.4-2.5,3.5-3.4,6.1c-1.8,5.2-1,9.8-0.3,12.4c0.5-2.3,1.5-4.3,3-5.8c1.9-2,4.6-3,7.8-3c3.2,0,5.8,1,7.7,2.9
			c2.2,2.2,3.4,5.6,3.3,9.3c0,2.7-1,11.7-11,11.7c-3.9,0-6.5-1.4-8.1-3.2c0,0,0,0,0,0c-1.3-1.2-3-3.1-4.5-5.9
			c-3.7-6.7-3-13.3-2.7-15.5c0.4-2.8,1.3-5.2,2.2-7.2c-6.9,4.5-10.1,12.5-10.1,20.1c0,11.6,7.2,23.3,23.2,23.3
			c7.9,0,13.7-2.9,17.5-7.3c3.8-4.4,5.6-10.2,5.7-16C187,43.8,184.6,37.5,180.3,33.2z"/>
		<path class="st0" d="M135.1,56.9l8.5,8.6l-1.6,1.6c-4.4,4.4-10.4,6.7-17.1,6.7c-17.5,0-23.8-12.5-23.9-23.3
			c0-6.6,2.4-12.9,6.7-17.2c4.3-4.3,10.2-6.6,17.2-6.6c6.3,0,12,2.4,16.5,6.9l1.7,1.6l-8.4,8.1l-1.6-1.6c-2.1-2.1-5-3.2-8.2-3.2
			c-3.5,0-6.4,1.1-8.5,3.1c-2.1,2.1-3.3,5.3-3.3,8.7c0,2.7,0.9,11.5,11.7,11.5c3.1,0,6.5-1.4,8.6-3.5L135.1,56.9z"/>
	</g>
	<g>
		<path class="st0" d="M218.1,57.2c5.5-2.4,8.5-7.3,8.5-13.9c0-7.6-5.3-15.7-16.9-15.8c-3.2,0-6.5,0-9.7,0c-3.2,0-6.5,0-9.7,0h-2.3
			v45.3h12.2V59.2h4.1l11.9,13.6H232L218.1,57.2z M209.7,47.7h-9.4v-8.5h9.4c4.4,0,4.7,3.3,4.7,4.2
			C214.4,44.5,214.1,47.7,209.7,47.7z"/>
	</g>
	<g>
		<path class="st0" d="M271.1,27.5v2.2l0.9-2.2H271.1z"/>
	</g>
	<g>
		<path class="st0" d="M271.1,27.5v2.2l0.9-2.2H271.1z"/>
	</g>
	<g>
		<polygon class="st0" points="272,27.5 283.2,27.5 283.2,72.8 271.1,72.8 271.1,29.8 		"/>
		<path class="st0" d="M326.2,53.2c0,12.6-7.6,20.5-19.9,20.5c-10.1,0-20.4-6.3-20.4-20.5V27.6h12.2v25.6c0,5.8,2.9,8.9,8.2,8.9
			c6.3,0,7.7-4.9,7.7-8.9V27.6h12.2V53.2z"/>
		<polygon class="st0" points="271.1,27.5 271.1,29.8 253.2,73 242.2,73 223.3,27.5 236.9,27.5 247.6,55.2 258.4,27.5 		"/>
		<path class="st0" d="M366.2,58.6c0,9.3-7.6,15.3-19.4,15.3c-10.2,0-16.7-3.7-19.9-11.4l-0.8-1.9l10.5-5.4l0.9,2.3
			c1.3,3.1,4.8,5,9.3,5c1.7,0,7.1-0.3,7.1-3.8c0-0.7,0-2.9-7.4-3.7c-5.4-0.6-18-2.1-18-14.6c0-9.7,9.1-14.1,18-14.1
			c8.8,0,15.1,3.2,18.1,9.4l1,2l-10,5.1l-1.1-1.8c-0.9-1.4-3.8-3.4-7.7-3.4c-3,0-6.1,0.8-6.1,3.1c0,1.4,2.1,2.3,7.1,2.9
			C353.8,44.1,366.2,45.6,366.2,58.6z"/>
	</g>
</g>
</svg>
