<?xml version="1.0" encoding="utf-8"?>
<!-- Generator: Adobe Illustrator 19.0.0, SVG Export Plug-In . SVG Version: 6.00 Build 0)  -->
<svg version="1.1" id="Layer_1" xmlns="http://www.w3.org/2000/svg" xmlns:xlink="http://www.w3.org/1999/xlink" x="0px" y="0px"
	 viewBox="0 0 100 100" style="enable-background:new 0 0 100 100;" xml:space="preserve">
<style type="text/css">
	.st0{fill:#8E3AEF;}
</style>
<g id="XMLID_1_">
	<path class="st0" d="M38.6,75.4C28,72.3,18.9,66.2,13,58.4c-2-2.7-3.6-5.5-4.6-8.4v0l1.1-3.2c2.4-7.1,7.9-19.4,19.7-29.8
		c2.3-2,4.7-3.9,7.5-5.7c1-0.7,2-1.3,3.1-1.9C49.3,3.7,60,0.6,71.5,0.1C80-0.3,86.9,0.8,91.2,1.8l-6.4,27.4l-1.9,8.1l-2.4,10.4
		L69.3,26.9c0,0-11.9,2.5-18,6.5c-7.5,5-11.9,11.4-14.5,16.6c2.6,5.2,7,11.7,14.5,16.6c7.6,5,15.5,6.6,21.8,6.8
		C64,78.1,51.3,79.2,38.6,75.4z"/>
	<path class="st0" d="M85.1,72.6l6,25.5c-4.3,1-11.2,2.1-19.7,1.8C58.7,99.3,47,95.6,36.7,88.8c-6.6-4.4-11.8-9.5-15.8-14.5
		c4.8,3.1,10.1,5.6,15.9,7.3c5.7,1.7,11.5,2.5,17.2,2.5c6.2,0,12.1-1,17.6-3C77,79,81.6,76.2,85.1,72.6z"/>
</g>
</svg>
