<?xml version="1.0" encoding="utf-8"?>
<!-- Generator: Adobe Illustrator 19.0.0, SVG Export Plug-In . SVG Version: 6.00 Build 0)  -->
<svg version="1.1" id="Layer_1" xmlns="http://www.w3.org/2000/svg" xmlns:xlink="http://www.w3.org/1999/xlink" x="0px" y="0px"
	 viewBox="0 0 120 120" style="enable-background:new 0 0 120 120;" xml:space="preserve">
<style type="text/css">
	.st0{fill:#D3D6D9;}
</style>
<polygon id="XMLID_13_" class="st0" points="25,8.1 25,113.4 11.6,111.8 11.6,10.2 "/>
<rect id="XMLID_5_" x="69.5" y="17.3" class="st0" width="36" height="13.5"/>
<polygon id="XMLID_14_" class="st0" points="78.6,0 78.6,13.6 65.1,15.6 25,21.7 11.6,23.8 11.6,10.2 25,8.1 65.1,2 "/>
<polygon id="XMLID_16_" class="st0" points="78.6,106.4 78.6,120 65.1,118.4 25,113.4 11.6,111.8 11.6,98.2 25,99.9 65.1,104.8 "/>
<polygon id="XMLID_15_" class="st0" points="78.6,0 78.6,120 65.1,118.4 65.1,2 "/>
<rect id="XMLID_4_" x="94" y="17.3" class="st0" width="13.5" height="95"/>
<rect id="XMLID_7_" x="54.4" y="55" class="st0" width="7.4" height="16.5"/>
</svg>
