<svg version="1.1" id="Layer_1" xmlns="http://www.w3.org/2000/svg" x="0" y="0" viewBox="0 0 30 30" style="enable-background:new 0 0 30 30" xml:space="preserve"><style>.st0{fill:#d3d6d9}</style><path id="XMLID_1_" class="st0" d="M28 29.8H2c-1.1 0-2-.9-2-2s.9-2 2-2h26c1.1 0 2 .9 2 2s-.9 2-2 2z"/><path id="XMLID_3_" class="st0" d="M4 20.1v7.7c0 1.1-.9 2-2 2s-2-.9-2-2v-7.7c0-1.1.9-2 2-2s2 .9 2 2z"/><path id="XMLID_4_" class="st0" d="M30 20.1v7.7c0 1.1-.9 2-2 2s-2-.9-2-2v-7.7c0-1.1.9-2 2-2s2 .9 2 2z"/><path id="XMLID_5_" class="st0" d="M17 14.3V2.2c0-1.1-.9-2-2-2s-2 .9-2 2v12.1c0 1.1.9 2 2 2s2-.9 2-2z"/><path id="XMLID_7_" class="st0" d="m13.6 19.8-6-6c-.8-.8-.8-2 0-2.8.8-.8 2-.8 2.8 0l6 6c.8.8.8 2 0 2.8-.8.8-2 .8-2.8 0z"/><path id="XMLID_6_" class="st0" d="m16.4 19.8 6-6c.8-.8.8-2 0-2.8-.8-.8-2-.8-2.8 0l-6 6c-.8.8-.8 2 0 2.8.8.8 2 .8 2.8 0z"/></svg>