<?xml version="1.0" encoding="utf-8"?>
<!-- Generator: Adobe Illustrator 19.0.0, SVG Export Plug-In . SVG Version: 6.00 Build 0)  -->
<svg version="1.1" id="Layer_1" xmlns="http://www.w3.org/2000/svg" xmlns:xlink="http://www.w3.org/1999/xlink" x="0px" y="0px"
	 viewBox="0 0 30 30" style="enable-background:new 0 0 30 30;" xml:space="preserve">
<style type="text/css">
	.st0{fill:#D3D6D9;}
</style>
<path id="XMLID_1_" class="st0" d="M28,29.8H2c-1.1,0-2-0.9-2-2l0,0c0-1.1,0.9-2,2-2h26c1.1,0,2,0.9,2,2l0,0
	C30,28.9,29.1,29.8,28,29.8z"/>
<path id="XMLID_3_" class="st0" d="M4,20.1v7.7c0,1.1-0.9,2-2,2l0,0c-1.1,0-2-0.9-2-2v-7.7c0-1.1,0.9-2,2-2l0,0
	C3.1,18.1,4,19,4,20.1z"/>
<path id="XMLID_4_" class="st0" d="M30,20.1v7.7c0,1.1-0.9,2-2,2l0,0c-1.1,0-2-0.9-2-2v-7.7c0-1.1,0.9-2,2-2l0,0
	C29.1,18.1,30,19,30,20.1z"/>
<path id="XMLID_5_" class="st0" d="M17,14.3V2.2c0-1.1-0.9-2-2-2l0,0c-1.1,0-2,0.9-2,2v12.1c0,1.1,0.9,2,2,2l0,0
	C16.1,16.3,17,15.4,17,14.3z"/>
<path id="XMLID_7_" class="st0" d="M13.6,19.8l-6-6c-0.8-0.8-0.8-2,0-2.8l0,0c0.8-0.8,2-0.8,2.8,0l6,6c0.8,0.8,0.8,2,0,2.8l0,0
	C15.6,20.6,14.4,20.6,13.6,19.8z"/>
<path id="XMLID_6_" class="st0" d="M16.4,19.8l6-6c0.8-0.8,0.8-2,0-2.8l0,0c-0.8-0.8-2-0.8-2.8,0l-6,6c-0.8,0.8-0.8,2,0,2.8l0,0
	C14.4,20.6,15.6,20.6,16.4,19.8z"/>
</svg>
