<?xml version="1.0" encoding="utf-8"?>
<!-- Generator: Adobe Illustrator 19.0.0, SVG Export Plug-In . SVG Version: 6.00 Build 0)  -->
<svg version="1.1" id="Layer_1" xmlns="http://www.w3.org/2000/svg" xmlns:xlink="http://www.w3.org/1999/xlink" x="0px" y="0px"
	 viewBox="0 0 120 120" style="enable-background:new 0 0 120 120;" xml:space="preserve">
<style type="text/css">
	.st0{fill:#78C143;}
</style>
<g id="Layer_6">
	<path id="XMLID_24_" class="st0" d="M92.9,29.7v-7.6C92.9,9.9,83,0,70.8,0H39.3C27,0,17.1,9.9,17.1,22.2v75.6
		c0,12.3,9.9,22.2,22.2,22.2h31.5c12.3,0,22.2-9.9,22.2-22.2v-8.9c0-3.4-2.7-6.1-6.1-6.1l0,0c-3.4,0-6.1,2.7-6.1,6.1v8.9
		c0,5.6-4.5,10.1-10.1,10.1H39.3c-5.6,0-10.1-4.5-10.1-10.1V22.2c0-5.6,4.5-10.1,10.1-10.1h31.5c5.6,0,10.1,4.5,10.1,10.1v7.6
		c0,3.4,2.7,6.1,6.1,6.1l0,0C90.2,35.8,92.9,33.1,92.9,29.7z"/>
	<path id="XMLID_12_" class="st0" d="M104.2,66.5H58.3V54.4h45.7c3.4,0,6.1,2.7,6.1,6.1l0,0C110.3,63.7,107.5,66.5,104.2,66.5z"/>
	<path id="XMLID_23_" class="st0" d="M72.6,46.7L55,64.2c-2.4,2.3-6.2,2.3-8.6,0l0,0c-2.3-2.4-2.3-6.2,0-8.6L64,38.1
		c2.4-2.3,6.2-2.3,8.6,0l0,0C75.1,40.5,75.1,44.4,72.6,46.7z"/>
	<path id="XMLID_25_" class="st0" d="M72.6,73.2L55,55.6c-2.4-2.3-6.2-2.3-8.6,0l0,0c-2.3,2.4-2.3,6.2,0,8.6L64,81.7
		c2.4,2.3,6.2,2.3,8.6,0l0,0C75.1,79.4,75.1,75.5,72.6,73.2z"/>
</g>
</svg>
