<svg version="1.1" id="Layer_1" xmlns="http://www.w3.org/2000/svg" x="0" y="0" viewBox="0 0 30 30" style="enable-background:new 0 0 30 30" xml:space="preserve"><style>.st0{fill:#d3d6d9}</style><path id="XMLID_15_" class="st0" d="M23.6 12H6.4c-1.5 0-2.7 1.3-2.7 2.9v10.8c0 1.6 1.2 2.9 2.7 2.9h17.2c1.5 0 2.7-1.3 2.7-2.9V14.9c0-1.6-1.2-2.9-2.7-2.9zm-8.3 12.5c-.3 0-.4-.1-.6-.2-.2-.2-.3-.4-.3-.7v-2.1c-.8-.3-1.4-.9-1.7-1.7-.1-.3-.2-.6-.2-.9 0-1.6 1.2-2.8 2.7-2.8s2.7 1.3 2.7 2.8v.3c-.1 1.1-.8 2.1-1.8 2.4v2.1c0 .2-.1.5-.3.6-.1.1-.3.2-.5.2z"/><path id="XMLID_2_" class="st0" d="M15 1.5c-4.2 0-7.7 3.4-7.7 7.7V12H11V9.1c0-2.2 1.8-3.9 4-3.9s4 1.8 4 3.9V12h3.7V9.1c0-4.2-3.5-7.6-7.7-7.6z"/></svg>