<?xml version="1.0" encoding="utf-8"?>
<!-- Generator: Adobe Illustrator 19.0.0, SVG Export Plug-In . SVG Version: 6.00 Build 0)  -->
<svg version="1.1" id="Layer_1" xmlns="http://www.w3.org/2000/svg" xmlns:xlink="http://www.w3.org/1999/xlink" x="0px" y="0px"
	 viewBox="0 0 30 30" style="enable-background:new 0 0 30 30;" xml:space="preserve">
<style type="text/css">
	.st0{fill:#D3D6D9;}
</style>
<path id="XMLID_15_" class="st0" d="M23.6,12H6.4c-1.5,0-2.7,1.3-2.7,2.9v10.8c0,1.6,1.2,2.9,2.7,2.9h17.2c1.5,0,2.7-1.3,2.7-2.9
	V14.9C26.3,13.3,25.1,12,23.6,12z M15.3,24.5L15.3,24.5c-0.3,0-0.4-0.1-0.6-0.2c-0.2-0.2-0.3-0.4-0.3-0.7v-2.1
	c-0.8-0.3-1.4-0.9-1.7-1.7c-0.1-0.3-0.2-0.6-0.2-0.9c0-1.6,1.2-2.8,2.7-2.8s2.7,1.3,2.7,2.8c0,0.1,0,0.2,0,0.3
	c-0.1,1.1-0.8,2.1-1.8,2.4v2.1c0,0.2-0.1,0.5-0.3,0.6C15.7,24.4,15.5,24.5,15.3,24.5z"/>
<path id="XMLID_2_" class="st0" d="M15,1.5c-4.2,0-7.7,3.4-7.7,7.7V12H11V9.1c0-2.2,1.8-3.9,4-3.9s4,1.8,4,3.9V12h3.7V9.1
	C22.7,4.9,19.2,1.5,15,1.5z"/>
</svg>
