<?xml version="1.0" encoding="utf-8"?>
<!-- Generator: Adobe Illustrator 19.0.0, SVG Export Plug-In . SVG Version: 6.00 Build 0)  -->
<svg version="1.1" id="Layer_1" xmlns="http://www.w3.org/2000/svg" xmlns:xlink="http://www.w3.org/1999/xlink" x="0px" y="0px"
	 viewBox="-220.7 251.1 15.6 15.9" style="enable-background:new -220.7 251.1 15.6 15.9;" xml:space="preserve">
<style type="text/css">
	.st0{fill:#D3D6D9;}
</style>
<path class="st0" d="M-216,267c-0.7,0-1.4-0.5-1.5-1.3c-0.1-0.9-0.6-1.9-1.1-2.8l-0.3-0.5c-0.5-1.1-1-2.2-1.4-3.4
	c-0.3-0.8-0.5-1.7-0.5-2.6c0-0.5,0.3-0.9,0.7-1.2c0.4-0.3,0.9-0.3,1.4-0.1c3.7,1.7,6.9,2.9,10.1,3.6c-0.3-0.9-0.7-1.8-1-2.8
	l-1.1-2.7c-0.3-0.8,0-1.6,0.8-2c0.8-0.3,1.6,0,2,0.8l1.1,2.7c0.7,1.7,1.5,3.6,1.6,5.7c0,0.4-0.1,0.9-0.5,1.2
	c-0.3,0.3-0.8,0.4-1.2,0.4c-3.4-0.5-6.7-1.5-10.2-3c0.3,0.7,0.6,1.4,0.9,2l0.3,0.5c0.6,1.1,1.1,2.3,1.3,3.7c0.1,0.8-0.4,1.6-1.3,1.7
	C-215.9,267-215.9,267-216,267z"/>
</svg>
