<?xml version="1.0" encoding="utf-8"?>
<!-- Generator: Adobe Illustrator 19.0.0, SVG Export Plug-In . SVG Version: 6.00 Build 0)  -->
<svg version="1.1" id="Layer_1" xmlns="http://www.w3.org/2000/svg" xmlns:xlink="http://www.w3.org/1999/xlink" x="0px" y="0px"
	 viewBox="-222.5 251 19.1 15.7" style="enable-background:new -222.5 251 19.1 15.7;" xml:space="preserve">
<style type="text/css">
	.st0{fill:#D3D6D9;}
</style>
<path class="st0" d="M-212.5,266.7c-1,0-1.9-0.1-2.8-0.1c-0.6,0-2-0.1-2.7-1.3c-0.2-0.4-0.3-0.8-0.2-1.3c0.8-2.4,2.1-4.4,3.5-6.3
	c0.6-0.8,1.1-1.6,1.7-2.5c0.2-0.4,0.4-0.7,0.5-0.9l-6.2,3c-0.2,0.1-0.7,0.3-0.8,0.5c-0.3,0.8-1.2,1.1-2,0.8c-0.8-0.3-1.1-1.2-0.8-2
	c0.5-1.2,1.6-1.7,2.2-2l6.8-3.3c0.4-0.2,1.5-0.8,2.6-0.1c0.4,0.3,0.7,0.6,0.9,1.1c0.7,1.7-0.1,3.3-0.8,4.4c-0.6,0.9-1.2,1.8-1.8,2.6
	c-1,1.4-1.9,2.7-2.6,4.2c1.7,0.1,3.4,0.2,5-0.2c1.7-0.4,3-1.3,3.6-2.4c0.4-0.7,1.3-1,2-0.6c0.7,0.4,1,1.3,0.6,2
	c-1,1.9-3.1,3.4-5.6,3.9C-210.3,266.7-211.4,266.7-212.5,266.7z"/>
</svg>
