<?xml version="1.0" encoding="utf-8"?>
<!-- Generator: Adobe Illustrator 19.0.0, SVG Export Plug-In . SVG Version: 6.00 Build 0)  -->
<svg version="1.1" id="Layer_1" xmlns="http://www.w3.org/2000/svg" xmlns:xlink="http://www.w3.org/1999/xlink" x="0px" y="0px"
	 viewBox="-221.1 248.9 8.8 8.5" style="enable-background:new -221.1 248.9 8.8 8.5;" xml:space="preserve">
<style type="text/css">
	.st0{fill:#D3D6D9;}
</style>
<path class="st0" d="M-218.4,257.4c-0.3,0-0.6-0.1-0.8-0.4c-0.2-0.3-0.3-0.6-0.2-0.9c0.4-1.5,0.9-2.9,1.6-4.3
	c-0.1,0-0.2,0.1-0.3,0.1c-0.5,0.2-1.1,0.3-1.4,0.6c-0.5,0.3-1.1,0.2-1.4-0.3c-0.3-0.5-0.2-1.1,0.3-1.4c0.6-0.4,1.3-0.7,2-0.8
	c0.7-0.2,1.3-0.4,1.6-0.8c0.2-0.2,0.6-0.4,0.9-0.3c0.3,0.1,0.6,0.3,0.8,0.6c0.5,1,0,2-0.3,2.6c-0.5,1-0.9,2.1-1.3,3.1
	c1.2-0.2,2.3-0.5,3.4-0.9c0.5-0.2,1.1,0.1,1.3,0.6c0.2,0.5-0.1,1.1-0.6,1.3c-1.7,0.6-3.5,1-5.3,1.2
	C-218.4,257.4-218.4,257.4-218.4,257.4z"/>
</svg>
