<?xml version="1.0" encoding="utf-8"?>
<!-- Generator: Adobe Illustrator 19.0.0, SVG Export Plug-In . SVG Version: 6.00 Build 0)  -->
<svg version="1.1" id="Layer_1" xmlns="http://www.w3.org/2000/svg" xmlns:xlink="http://www.w3.org/1999/xlink" x="0px" y="0px"
	 viewBox="-220.8 248.1 8.3 13.3" style="enable-background:new -220.8 248.1 8.3 13.3;" xml:space="preserve">
<style type="text/css">
	.st0{fill:#D3D6D9;}
</style>
<path class="st0" d="M-214.1,261.4c-0.2,0-0.3,0-0.5-0.1c-0.4-0.2-0.8-0.4-1.2-0.8l-0.1-0.1c0,0,0-0.1-0.1-0.1c0,0-0.1,0-0.2-0.1
	c-1.3-0.4-2.4-1.2-3.3-2.3c-0.1-0.2-0.3-0.4-0.4-0.8c-0.2-0.9,0.4-1.6,0.7-1.9c1.5-1.6,2.8-3.3,4-5.1c-1.6,0-3.1,0-4.7,0.2
	c-0.6,0.1-1-0.3-1.1-0.9c-0.1-0.5,0.3-1,0.9-1.1c2.1-0.2,4.3-0.3,6.4-0.2c0.5,0,0.9,0.4,0.9,0.9c0.1,0.7-0.3,1.3-0.5,1.6
	c-1.3,2.1-2.8,4.2-4.5,6c-0.1,0.1-0.1,0.1-0.1,0.1c0.6,0.7,1.3,1.2,2.2,1.5c0.3,0.1,0.6,0.2,0.9,0.4c0.1,0.1,0.2,0.2,0.3,0.3
	c0.2,0.2,0.5,0.4,0.8,0.5c0.5,0.3,0.7,0.9,0.4,1.4C-213.3,261.2-213.7,261.4-214.1,261.4z"/>
</svg>
