<?xml version="1.0" encoding="utf-8"?>
<!-- Generator: Adobe Illustrator 19.0.0, SVG Export Plug-In . SVG Version: 6.00 Build 0)  -->
<svg version="1.1" id="Layer_1" xmlns="http://www.w3.org/2000/svg" xmlns:xlink="http://www.w3.org/1999/xlink" x="0px" y="0px"
	 viewBox="-223.6 247.2 7.2 7.6" style="enable-background:new -223.6 247.2 7.2 7.6;" xml:space="preserve">
<style type="text/css">
	.st0{fill:#D3D6D9;}
</style>
<path class="st0" d="M-221.2,254.8c-0.3,0-0.5-0.1-0.7-0.3c-0.2-0.2-0.3-0.5-0.2-0.8c0.2-0.9,0.5-1.8,0.8-2.6
	c0.2-0.5,0.4-1.1,0.7-1.7c-0.6,0.1-1.2,0.3-1.7,0.6c-0.5,0.2-1,0-1.2-0.4s0-1,0.4-1.2c1.4-0.7,3-0.9,4.4-1.1c0.3,0,0.6,0.1,0.8,0.3
	c0.2,0.2,0.3,0.6,0.1,0.9c-0.2,0.6-0.5,1-0.8,1.3c-0.1,0.2-0.3,0.3-0.4,0.5c-0.3,0.4-0.4,0.9-0.6,1.4c-0.1,0.4-0.2,0.7-0.4,1.1
	l2.4-0.4c0.5-0.1,1,0.2,1.1,0.7c0.1,0.5-0.2,1-0.7,1.1l-3.9,0.7C-221.1,254.8-221.1,254.8-221.2,254.8z"/>
</svg>
