<?xml version="1.0" encoding="utf-8"?>
<!-- Generator: Adobe Illustrator 19.0.0, SVG Export Plug-In . SVG Version: 6.00 Build 0)  -->
<svg version="1.1" id="Layer_1" xmlns="http://www.w3.org/2000/svg" xmlns:xlink="http://www.w3.org/1999/xlink" x="0px" y="0px"
	 viewBox="-222.9 248.2 6.8 5.6" style="enable-background:new -222.9 248.2 6.8 5.6;" xml:space="preserve">
<style type="text/css">
	.st0{fill:#D3D6D9;}
</style>
<path class="st0" d="M-217.7,253.8c-1.3,0-2.5-0.1-3.8-0.4c-0.6-0.1-0.8-0.5-0.9-0.7c-0.1-0.2-0.2-0.6,0.1-1c0.4-0.6,0.9-1,1.4-1.4
	c-0.4,0-0.7,0-1,0c0,0,0,0,0,0c-0.5,0-1-0.4-1-1c0-0.6,0.4-1,1-1c0.6,0,1.4,0.1,2.1,0.1c0.6,0,1.1,0.1,1.6,0.1
	c0.4,0,0.7,0.2,0.9,0.5c0.2,0.3,0.2,0.7,0,1c-0.5,0.8-1.3,1.3-1.9,1.7c0,0-0.1,0-0.1,0.1c0.8,0.1,1.6,0.1,2.3,0.1c0.5,0,1,0.4,1,1
	c0,0.6-0.4,1-1,1C-217.2,253.8-217.5,253.8-217.7,253.8z"/>
</svg>
