<svg xmlns="http://www.w3.org/2000/svg" viewBox="-220.7 251.1 15.6 15.9" style="enable-background:new -220.7 251.1 15.6 15.9" xml:space="preserve"><path d="M-216 267c-.7 0-1.4-.5-1.5-1.3-.1-.9-.6-1.9-1.1-2.8l-.3-.5c-.5-1.1-1-2.2-1.4-3.4-.3-.8-.5-1.7-.5-2.6 0-.5.3-.9.7-1.2.4-.3.9-.3 1.4-.1 3.7 1.7 6.9 2.9 10.1 3.6-.3-.9-.7-1.8-1-2.8l-1.1-2.7c-.3-.8 0-1.6.8-2 .8-.3 1.6 0 2 .8l1.1 2.7c.7 1.7 1.5 3.6 1.6 5.7 0 .4-.1.9-.5 1.2-.3.3-.8.4-1.2.4-3.4-.5-6.7-1.5-10.2-3 .3.7.6 1.4.9 2l.3.5c.6 1.1 1.1 2.3 1.3 3.7.1.8-.4 1.6-1.3 1.7 0 .1 0 .1-.1.1z" style="fill:#d3d6d9"/></svg>