<?xml version="1.0" encoding="utf-8"?>
<!-- Generator: Adobe Illustrator 19.0.0, SVG Export Plug-In . SVG Version: 6.00 Build 0)  -->
<svg version="1.1" id="Layer_1" xmlns="http://www.w3.org/2000/svg" xmlns:xlink="http://www.w3.org/1999/xlink" x="0px" y="0px"
	 viewBox="-221.8 250.6 16.5 15.9" style="enable-background:new -221.8 250.6 16.5 15.9;" xml:space="preserve">
<style type="text/css">
	.st0{fill:#D3D6D9;}
</style>
<path class="st0" d="M-206.8,266.5c-0.1,0-0.1,0-0.2,0l-3.9-0.6c-0.7-0.1-1.4-0.2-2-0.3c-2.6-0.5-5-1.5-7.2-2.9
	c-0.5-0.3-0.7-0.8-0.8-1.1c-0.1-0.6,0.2-1.2,0.7-1.6c2.7-2,5.6-3.8,8.6-5.4c0.4-0.2,0.8-0.4,1-0.6c0,0,0,0,0,0
	c-3.2-0.5-6.5-0.4-9.7-0.3c-0.8,0.1-1.5-0.6-1.5-1.5s0.6-1.5,1.5-1.5c3.7-0.1,7.5-0.2,11.3,0.5c0.2,0,0.6,0.1,1,0.5
	c0.3,0.3,0.5,0.7,0.5,0.8c0.2,0.5,0.2,0.9,0.2,1.3c0,0.9-0.5,1.7-1.2,2.4c-0.5,0.5-1.1,0.8-1.6,1.1c-2.3,1.2-4.5,2.6-6.6,4
	c1.4,0.7,2.9,1.2,4.3,1.4c0.6,0.1,1.3,0.2,1.9,0.3l3.9,0.6c0.8,0.1,1.4,0.9,1.3,1.7C-205.4,266-206,266.5-206.8,266.5z"/>
</svg>
