<svg xmlns="http://www.w3.org/2000/svg" viewBox="-221.8 250.6 16.5 15.9" style="enable-background:new -221.8 250.6 16.5 15.9" xml:space="preserve"><path d="M-206.8 266.5h-.2l-3.9-.6c-.7-.1-1.4-.2-2-.3-2.6-.5-5-1.5-7.2-2.9-.5-.3-.7-.8-.8-1.1-.1-.6.2-1.2.7-1.6 2.7-2 5.6-3.8 8.6-5.4.4-.2.8-.4 1-.6-3.2-.5-6.5-.4-9.7-.3-.8.1-1.5-.6-1.5-1.5s.6-1.5 1.5-1.5c3.7-.1 7.5-.2 11.3.5.2 0 .6.1 1 .5.3.3.5.7.5.8.2.5.2.9.2 1.3 0 .9-.5 1.7-1.2 2.4-.5.5-1.1.8-1.6 1.1-2.3 1.2-4.5 2.6-6.6 4 1.4.7 2.9 1.2 4.3 1.4.6.1 1.3.2 1.9.3l3.9.6c.8.1 1.4.9 1.3 1.7-.1.7-.7 1.2-1.5 1.2z" style="fill:#d3d6d9"/></svg>