<svg xmlns="http://www.w3.org/2000/svg" viewBox="-222.5 251 19.1 15.7" style="enable-background:new -222.5 251 19.1 15.7" xml:space="preserve"><path d="M-212.5 266.7c-1 0-1.9-.1-2.8-.1-.6 0-2-.1-2.7-1.3-.2-.4-.3-.8-.2-1.3.8-2.4 2.1-4.4 3.5-6.3.6-.8 1.1-1.6 1.7-2.5.2-.4.4-.7.5-.9l-6.2 3c-.2.1-.7.3-.8.5-.3.8-1.2 1.1-2 .8-.8-.3-1.1-1.2-.8-2 .5-1.2 1.6-1.7 2.2-2l6.8-3.3c.4-.2 1.5-.8 2.6-.1.4.3.7.6.9 1.1.7 1.7-.1 3.3-.8 4.4-.6.9-1.2 1.8-1.8 2.6-1 1.4-1.9 2.7-2.6 4.2 1.7.1 3.4.2 5-.2 1.7-.4 3-1.3 3.6-2.4.4-.7 1.3-1 2-.6s1 1.3.6 2c-1 1.9-3.1 3.4-5.6 3.9-.9.5-2 .5-3.1.5z" style="fill:#d3d6d9"/></svg>