<svg xmlns="http://www.w3.org/2000/svg" viewBox="-220.8 248.1 8.3 13.3" style="enable-background:new -220.8 248.1 8.3 13.3" xml:space="preserve"><path d="M-214.1 261.4c-.2 0-.3 0-.5-.1-.4-.2-.8-.4-1.2-.8l-.1-.1s0-.1-.1-.1c0 0-.1 0-.2-.1-1.3-.4-2.4-1.2-3.3-2.3-.1-.2-.3-.4-.4-.8-.2-.9.4-1.6.7-1.9 1.5-1.6 2.8-3.3 4-5.1-1.6 0-3.1 0-4.7.2-.6.1-1-.3-1.1-.9-.1-.5.3-1 .9-1.1 2.1-.2 4.3-.3 6.4-.2.5 0 .9.4.9.9.1.7-.3 1.3-.5 1.6-1.3 2.1-2.8 4.2-4.5 6l-.1.1c.6.7 1.3 1.2 2.2 1.5.3.1.6.2.9.4l.3.3c.2.2.5.4.8.5.5.3.7.9.4 1.4 0 .4-.4.6-.8.6z" style="fill:#d3d6d9"/></svg>