<svg xmlns="http://www.w3.org/2000/svg" viewBox="-222 249.4 12.2 10.3" style="enable-background:new -222 249.4 12.2 10.3" xml:space="preserve"><path d="M-218.3 259.7c-.2 0-.5-.1-.7-.2-.2-.2-.4-.5-.3-.8.1-1.4.7-2.6 1.3-3.7l.3-.6c.4-.8.8-1.7.8-2.7-1.2.4-2.4 1.2-3.3 2.1-.4.4-1 .4-1.4 0-.4-.4-.4-1 0-1.4 1.4-1.4 3.1-2.4 5-2.9.6-.1 1 0 1.2.2.3.2.3.5.4.6.5 1.8-.1 3.5-.8 4.8-.1.2-.2.4-.3.7-.3.5-.5 1.1-.7 1.6l.8-.2c.8-.2 1.7-.4 2.4-.7.4-.2.8-.5 1.1-.7.5-.5.8-1.2.9-1.9 0-.5.5-1 1.1-.9.5 0 1 .5.9 1.1-.1 1.2-.6 2.3-1.4 3.1-.4.4-1 .8-1.6 1.1-.9.5-1.9.7-2.8.9l-2.4.6c-.4-.1-.4-.1-.5-.1z" style="fill:#d3d6d9"/></svg>