<?xml version="1.0" encoding="utf-8"?>
<!-- Generator: Adobe Illustrator 19.0.0, SVG Export Plug-In . SVG Version: 6.00 Build 0)  -->
<svg version="1.1" id="Layer_1" xmlns="http://www.w3.org/2000/svg" xmlns:xlink="http://www.w3.org/1999/xlink" x="0px" y="0px"
	 viewBox="-222 249.4 12.2 10.3" style="enable-background:new -222 249.4 12.2 10.3;" xml:space="preserve">
<style type="text/css">
	.st0{fill:#D3D6D9;}
</style>
<path class="st0" d="M-218.3,259.7c-0.2,0-0.5-0.1-0.7-0.2c-0.2-0.2-0.4-0.5-0.3-0.8c0.1-1.4,0.7-2.6,1.3-3.7l0.3-0.6
	c0.4-0.8,0.8-1.7,0.8-2.7c-1.2,0.4-2.4,1.2-3.3,2.1c-0.4,0.4-1,0.4-1.4,0c-0.4-0.4-0.4-1,0-1.4c1.4-1.4,3.1-2.4,5-2.9
	c0.6-0.1,1,0,1.2,0.2c0.3,0.2,0.3,0.5,0.4,0.6c0.5,1.8-0.1,3.5-0.8,4.8c-0.1,0.2-0.2,0.4-0.3,0.7c-0.3,0.5-0.5,1.1-0.7,1.6l0.8-0.2
	c0.8-0.2,1.7-0.4,2.4-0.7c0.4-0.2,0.8-0.5,1.1-0.7c0.5-0.5,0.8-1.2,0.9-1.9c0-0.5,0.5-1,1.1-0.9c0.5,0,1,0.5,0.9,1.1
	c-0.1,1.2-0.6,2.3-1.4,3.1c-0.4,0.4-1,0.8-1.6,1.1c-0.9,0.5-1.9,0.7-2.8,0.9l-2.4,0.6C-218.2,259.7-218.2,259.7-218.3,259.7z"/>
</svg>
