<svg xmlns="http://www.w3.org/2000/svg" viewBox="-223.6 247.5 8.3 7" style="enable-background:new -223.6 247.5 8.3 7" xml:space="preserve"><path d="M-216.7 254.5c-1.6 0-3.2-.2-4.7-.5-.3-.1-.5-.2-.7-.5-.1-.3-.2-.5-.1-.8.2-.6.7-1.2 1.3-1.7l.9-.6c.2-.1.3-.2.5-.3.1-.1.3-.2.4-.3-1.2-.2-2.4-.3-3.6-.4-.5-.1-1-.5-.9-1.1.1-.5.6-.9 1.1-.9 1.3.1 2.6.2 3.9.4.6.1 1.2.2 1.8.6.3.2.4.4.5.6.1.2.2.7-.3 1.1-.5.6-1.1 1.1-1.8 1.6-.2.1-.4.2-.5.3-.1.1-.2.1-.3.2.9.1 1.9.2 2.8.2.6 0 1 .4 1 1s-.4 1-1 1c0 .1-.1.1-.3.1z" style="fill:#d3d6d9"/></svg>